<svg version="1.2" xmlns="http://www.w3.org/2000/svg" viewBox="0 0 600 600" width="300" height="300">
	<style>
		.s0 { fill: #000000 } 
		.s1 { opacity: .6;fill: #000000 } 
	</style>
	<g>
		<path class="s0" d="m343.01 535.84c-2.81-1.05-9.02-5.68-48.28-36.04-6.27-4.86-13.42-10.37-15.82-12.25-3.98-3.05-9.32-7.15-22.27-17.17-14.65-11.31-93.22-71.66-101.54-77.99-2.87-2.17-6.86-5.27-8.85-6.86-2.05-1.58-7.68-5.86-12.42-9.55-4.8-3.63-15.7-12.01-24.26-18.57-14.88-11.43-19.86-15.23-42.77-32.81-13.01-10.02-16.41-13.3-18.05-17.75-2.23-5.92-1.35-12.3 2.4-17.4 1.29-1.7 8.2-7.44 19.22-15.88 17.87-13.71 65.27-49.98 99.84-76.35 10.96-8.38 23.03-17.58 26.89-20.51 3.81-2.93 11.43-8.79 16.99-13.01 15-11.43 81.39-62.34 92.34-70.78 24.73-19.16 32.11-24.67 34.51-25.9 3.52-1.76 8.09-1.88 11.54-0.29 2.81 1.29 5.86 4.8 6.74 7.68 0.35 1.35 0.53 14.59 0.41 37.79-0.18 33.16-0.23 35.92-1.23 37.85-1.52 3.05-4.22 5.63-13.01 12.3-10.25 7.79-22.68 17.29-50.39 38.61-12.77 9.84-26.19 20.16-29.77 22.91-8.73 6.62-34.75 26.66-37.32 28.65-1.11 0.88-7.97 6.15-15.23 11.72-7.27 5.57-14.94 11.84-17.11 13.95-8.09 7.91-11.43 18.69-9.2 29.53 1 4.92 4.22 11.02 7.68 14.59 2.81 2.93 15.29 12.77 39.32 31 4.92 3.75 11.66 8.91 15.06 11.48 3.4 2.58 13.54 10.37 22.56 17.23 9.02 6.91 24.84 18.98 35.16 26.89 10.31 7.91 24.96 19.1 32.52 24.84 15.06 11.54 18.87 14.88 20.51 17.99 2.29 4.45 2.46 7.21 2.23 41.37l-0.18 32.81-1.76 3.46c-3.11 6.09-10.02 8.79-16.46 6.46z"/>
		<path class="s1" d="m521.54 535.49c-2.99-0.94-3.75-1.46-32.29-23.44-17.11-13.18-34.04-26.25-38.38-29.59-2.23-1.7-9.14-7.03-15.29-11.78-6.15-4.75-14.82-11.43-19.22-14.82-4.45-3.4-11.78-9.08-16.35-12.6-4.57-3.57-11.6-8.96-15.64-12.07-4.04-3.05-12.07-9.2-17.87-13.71-5.8-4.45-21.33-16.41-34.57-26.6-13.18-10.14-27.95-21.5-32.81-25.25-4.8-3.75-10.78-8.26-13.18-10.08-5.68-4.28-10.55-8.03-21.68-16.64-4.98-3.87-11.84-9.14-15.23-11.72-3.4-2.58-8.32-6.39-11.02-8.44-8.96-6.86-11.84-11.25-11.84-18.11 0-7.38 2.46-11.19 11.78-18.4 3.69-2.81 8.79-6.74 11.37-8.73 2.58-1.99 11.13-8.55 19.04-14.53 7.91-5.98 20.04-15.23 26.95-20.57 6.91-5.33 26.19-20.1 42.77-32.81 16.58-12.71 31.88-24.43 33.98-26.07 2.11-1.64 8.44-6.45 14.06-10.78 5.63-4.34 11.84-9.08 13.77-10.55 1.93-1.52 10.49-8.09 19.04-14.65 8.55-6.56 18.28-14.06 21.68-16.7 3.4-2.64 11.31-8.67 17.58-13.48 11.02-8.44 16.58-12.71 45.12-34.75 14.41-11.13 17.52-13.01 21.91-13.01 5.27 0 10.55 4.1 12.07 9.43 0.41 1.29 0.59 81.97 0.59 226.17v224.18l-1.82 3.57c-1.41 2.81-2.4 3.98-4.45 5.21-2.93 1.7-6.97 2.23-10.08 1.29z"/>
	</g>
</svg>